<mxfile host="65bd71144e">
    <diagram id="MVXunKosLU5wROzWXcYJ" name="Page-2">
        <mxGraphModel dx="633" dy="469" grid="1" gridSize="10" guides="1" tooltips="1" connect="1" arrows="1" fold="1" page="1" pageScale="1" pageWidth="850" pageHeight="1100" background="#ffffff" math="0" shadow="0">
            <root>
                <mxCell id="0"/>
                <mxCell id="1" parent="0"/>
                <mxCell id="jhaDuiDGC0TJaHCgAIyp-34" style="edgeStyle=none;sketch=1;hachureGap=4;jiggle=2;curveFitting=1;html=1;strokeColor=#000000;fontFamily=Architects Daughter;fontSource=https%3A%2F%2Ffonts.googleapis.com%2Fcss%3Ffamily%3DArchitects%2BDaughter;fontSize=16;fontColor=#080808;fillColor=none;" edge="1" parent="1">
                    <mxGeometry relative="1" as="geometry">
                        <mxPoint x="405.0000000000002" y="420" as="targetPoint"/>
                        <mxPoint x="405.0000000000002" y="390" as="sourcePoint"/>
                    </mxGeometry>
                </mxCell>
                <mxCell id="jhaDuiDGC0TJaHCgAIyp-35" value="&lt;font color=&quot;#080808&quot;&gt;start&lt;/font&gt;" style="ellipse;whiteSpace=wrap;html=1;aspect=fixed;sketch=1;hachureGap=4;jiggle=2;curveFitting=1;fontFamily=Architects Daughter;fontSource=https%3A%2F%2Ffonts.googleapis.com%2Fcss%3Ffamily%3DArchitects%2BDaughter;fontSize=20;strokeColor=#000000;gradientColor=none;fillColor=none;" vertex="1" parent="1">
                    <mxGeometry x="365" y="310" width="80" height="80" as="geometry"/>
                </mxCell>
                <mxCell id="jhaDuiDGC0TJaHCgAIyp-36" style="edgeStyle=none;sketch=1;hachureGap=4;jiggle=2;curveFitting=1;html=1;strokeColor=#000000;fontFamily=Architects Daughter;fontSource=https%3A%2F%2Ffonts.googleapis.com%2Fcss%3Ffamily%3DArchitects%2BDaughter;fontSize=17;fontColor=#080808;fillColor=none;" edge="1" parent="1" source="jhaDuiDGC0TJaHCgAIyp-38">
                    <mxGeometry relative="1" as="geometry">
                        <mxPoint x="280" y="450" as="targetPoint"/>
                    </mxGeometry>
                </mxCell>
                <mxCell id="jhaDuiDGC0TJaHCgAIyp-37" style="edgeStyle=none;sketch=1;hachureGap=4;jiggle=2;curveFitting=1;html=1;strokeColor=#000000;fontFamily=Architects Daughter;fontSource=https%3A%2F%2Ffonts.googleapis.com%2Fcss%3Ffamily%3DArchitects%2BDaughter;fontSize=17;fontColor=#080808;fillColor=none;" edge="1" parent="1" source="jhaDuiDGC0TJaHCgAIyp-38">
                    <mxGeometry relative="1" as="geometry">
                        <mxPoint x="519.9999999999998" y="455" as="targetPoint"/>
                        <Array as="points"/>
                    </mxGeometry>
                </mxCell>
                <mxCell id="jhaDuiDGC0TJaHCgAIyp-38" value="&lt;font style=&quot;font-size: 17px;&quot;&gt;check is condition is true&lt;/font&gt;" style="html=1;whiteSpace=wrap;aspect=fixed;shape=isoRectangle;sketch=1;hachureGap=4;jiggle=2;curveFitting=1;strokeColor=#000000;fontFamily=Architects Daughter;fontSource=https%3A%2F%2Ffonts.googleapis.com%2Fcss%3Ffamily%3DArchitects%2BDaughter;fontSize=20;fontColor=#080808;fillColor=none;gradientColor=none;" vertex="1" parent="1">
                    <mxGeometry x="345" y="420" width="116.67" height="70" as="geometry"/>
                </mxCell>
                <mxCell id="jhaDuiDGC0TJaHCgAIyp-39" value="" style="endArrow=classic;html=1;sketch=1;hachureGap=4;jiggle=2;curveFitting=1;strokeColor=#000000;fontFamily=Architects Daughter;fontSource=https%3A%2F%2Ffonts.googleapis.com%2Fcss%3Ffamily%3DArchitects%2BDaughter;fontSize=17;fontColor=#080808;fillColor=none;" edge="1" parent="1">
                    <mxGeometry width="50" height="50" relative="1" as="geometry">
                        <mxPoint x="280" y="450" as="sourcePoint"/>
                        <mxPoint x="280" y="530" as="targetPoint"/>
                    </mxGeometry>
                </mxCell>
                <mxCell id="jhaDuiDGC0TJaHCgAIyp-40" value="" style="endArrow=classic;html=1;sketch=1;hachureGap=4;jiggle=2;curveFitting=1;strokeColor=#000000;fontFamily=Architects Daughter;fontSource=https%3A%2F%2Ffonts.googleapis.com%2Fcss%3Ffamily%3DArchitects%2BDaughter;fontSize=17;fontColor=#080808;fillColor=none;" edge="1" parent="1">
                    <mxGeometry width="50" height="50" relative="1" as="geometry">
                        <mxPoint x="519.9999999999998" y="450" as="sourcePoint"/>
                        <mxPoint x="519.9999999999998" y="650" as="targetPoint"/>
                    </mxGeometry>
                </mxCell>
                <mxCell id="jhaDuiDGC0TJaHCgAIyp-41" value="True" style="text;html=1;align=center;verticalAlign=middle;resizable=0;points=[];autosize=1;strokeColor=default;fillColor=none;fontSize=13;fontFamily=Architects Daughter;fontColor=#080808;sketch=1;hachureGap=4;jiggle=2;curveFitting=1;fontSource=https%3A%2F%2Ffonts.googleapis.com%2Fcss%3Ffamily%3DArchitects%2BDaughter;" vertex="1" parent="1">
                    <mxGeometry x="290" y="420" width="50" height="30" as="geometry"/>
                </mxCell>
                <mxCell id="jhaDuiDGC0TJaHCgAIyp-42" value="Flase" style="text;html=1;align=center;verticalAlign=middle;resizable=0;points=[];autosize=1;strokeColor=default;fillColor=none;fontSize=13;fontFamily=Architects Daughter;fontColor=#080808;sketch=1;hachureGap=4;jiggle=2;curveFitting=1;fontSource=https%3A%2F%2Ffonts.googleapis.com%2Fcss%3Ffamily%3DArchitects%2BDaughter;" vertex="1" parent="1">
                    <mxGeometry x="461.66999999999996" y="420" width="50" height="30" as="geometry"/>
                </mxCell>
                <mxCell id="jhaDuiDGC0TJaHCgAIyp-43" value="" style="endArrow=classic;html=1;sketch=1;hachureGap=4;jiggle=2;curveFitting=1;strokeColor=#000000;fontFamily=Architects Daughter;fontSource=https%3A%2F%2Ffonts.googleapis.com%2Fcss%3Ffamily%3DArchitects%2BDaughter;fontSize=17;fontColor=#080808;fillColor=none;" edge="1" parent="1">
                    <mxGeometry width="50" height="50" relative="1" as="geometry">
                        <mxPoint x="519.9999999999998" y="650" as="sourcePoint"/>
                        <mxPoint x="440.0000000000002" y="650" as="targetPoint"/>
                    </mxGeometry>
                </mxCell>
                <mxCell id="jhaDuiDGC0TJaHCgAIyp-44" style="edgeStyle=none;sketch=1;hachureGap=4;jiggle=2;curveFitting=1;html=1;strokeColor=#000000;fontFamily=Architects Daughter;fontSource=https%3A%2F%2Ffonts.googleapis.com%2Fcss%3Ffamily%3DArchitects%2BDaughter;fontSize=13;fontColor=#080808;fillColor=none;" edge="1" parent="1" source="jhaDuiDGC0TJaHCgAIyp-45">
                    <mxGeometry relative="1" as="geometry">
                        <mxPoint x="285" y="660" as="targetPoint"/>
                    </mxGeometry>
                </mxCell>
                <mxCell id="jhaDuiDGC0TJaHCgAIyp-45" value="Process if true" style="rounded=1;whiteSpace=wrap;html=1;sketch=1;hachureGap=4;jiggle=2;curveFitting=1;strokeColor=default;fontFamily=Architects Daughter;fontSource=https%3A%2F%2Ffonts.googleapis.com%2Fcss%3Ffamily%3DArchitects%2BDaughter;fontSize=13;fontColor=#080808;fillColor=none;gradientColor=none;" vertex="1" parent="1">
                    <mxGeometry x="240" y="530" width="90" height="40" as="geometry"/>
                </mxCell>
                <mxCell id="jhaDuiDGC0TJaHCgAIyp-46" style="edgeStyle=none;sketch=1;hachureGap=4;jiggle=2;curveFitting=1;html=1;strokeColor=#000000;fontFamily=Architects Daughter;fontSource=https%3A%2F%2Ffonts.googleapis.com%2Fcss%3Ffamily%3DArchitects%2BDaughter;fontSize=13;fontColor=#080808;fillColor=none;" edge="1" parent="1">
                    <mxGeometry relative="1" as="geometry">
                        <mxPoint x="360" y="650" as="targetPoint"/>
                        <mxPoint x="290" y="650" as="sourcePoint"/>
                    </mxGeometry>
                </mxCell>
                <mxCell id="jhaDuiDGC0TJaHCgAIyp-47" value="&lt;font color=&quot;#080808&quot;&gt;stop&lt;/font&gt;" style="ellipse;whiteSpace=wrap;html=1;aspect=fixed;sketch=1;hachureGap=4;jiggle=2;curveFitting=1;fontFamily=Architects Daughter;fontSource=https%3A%2F%2Ffonts.googleapis.com%2Fcss%3Ffamily%3DArchitects%2BDaughter;fontSize=20;strokeColor=#000000;gradientColor=none;fillColor=none;" vertex="1" parent="1">
                    <mxGeometry x="363.33" y="620" width="80" height="80" as="geometry"/>
                </mxCell>
            </root>
        </mxGraphModel>
    </diagram>
</mxfile>